<svg xmlns="http://www.w3.org/2000/svg" xmlns:xlink="http://www.w3.org/1999/xlink" version="1.1" x="0px" y="0px" viewBox="0 0 100 125" style="enable-background:new 0 0 100 100;" xml:space="preserve"><g><path d="M78.1994324,71.8370209c-0.2382813-0.6118164-0.6992188-1.0947266-1.3007813-1.3588867   c-0.5996094-0.2651367-1.2675781-0.2802734-1.8798828-0.0415039l-5.9760742,2.3240356l-0.9749756-2.5072021l5.9754639-2.3236694   c0.6123047-0.237793,1.0947266-0.699707,1.3583984-1.300293c0.2646484-0.6010742,0.2792969-1.269043,0.0410156-1.8803711   l-0.3037109-0.78125c-0.4912109-1.2612305-1.9179688-1.8886719-3.1806641-1.3994141l-5.9752197,2.3240356l-1.0830688-2.7852173   l1.1344604-0.4411621c0.2470703-0.0961914,0.4462891-0.2866211,0.5527344-0.5292969   c0.1074219-0.2426758,0.1132813-0.5180664,0.0166016-0.7651367l-2.0097656-5.1665039   c-0.2001953-0.515625-0.78125-0.7700195-1.2939453-0.5698242l-1.0985718,0.4272461   c-1.4365845-4.2208862-1.1311646-8.867981,0.9227905-13.1762695c0.9765625-2.0546875,1.6347656-4.2509766,1.9570313-6.527832   c0.0498047-0.3515625-0.0908203-0.703125-0.3691406-0.9238281c-0.2792969-0.2211914-0.6542969-0.2763672-0.9833984-0.1484375   l-3.6591797,1.4228516c-0.9501953-1.296875-3.1748047-4.2431641-4.8857422-5.7944336   c-2.2949219-2.0795898-9.1601563-5.1005859-12.2441406-5.387207c-1.9912109-0.1855469-5.1875-1.4091797-6.7041016-2.0288086   l3.9384766-11.2441416c0.1181641-0.3349609,0.0488281-0.706543-0.1806641-0.9775391   c-0.2285156-0.2700195-0.5800781-0.3964844-0.9345703-0.3383789l-0.5234375,0.0859375   c-0.5283203,0.0834961-1.1259766,0.1782227-1.5898438,0.3027344c-6.3505878,1.6879883-11.4736347,5.8168955-14.4248066,11.6254892   c-2.9121094,5.7329102-3.2460938,12.456543-0.9160156,18.4472656c2.2539063,5.796875,6.8574219,10.4545898,12.6289082,12.7788086   c4.3682251,1.7563477,7.7050171,4.96698,9.5006714,9.0655518l-1.0983276,0.427124   c-0.5146484,0.2001953-0.7695313,0.7797852-0.5693359,1.2944336l2.0087891,5.1665039   c0.0957031,0.2470703,0.2861328,0.4462891,0.5292969,0.5532227c0.1279297,0.0561523,0.2646484,0.0844727,0.4023438,0.0844727   c0.1230469,0,0.2460938-0.0224609,0.3623047-0.0678711L46.504303,69.26091l1.6858521,4.335144l-3.2006836,1.244873   c-0.2792969,0.1088867-0.4951172,0.3369141-0.5878906,0.621582c-0.09375,0.284668-0.0537109,0.5961914,0.1074219,0.8486328   l6.0839844,9.5283203c0.1884766,0.2949219,0.5097656,0.4619141,0.8427734,0.4619141   c0.1210938,0,0.2441406-0.0219727,0.3623047-0.0678711l1.1349487-0.4414063l0.9216919,2.3701172   c0.4609375,1.1860352,1.5976563,1.9130859,2.7988281,1.9130859c0.3613281,0,0.7285156-0.065918,1.0839844-0.2041016   l12.8037109-4.9790039c0.7470703-0.2905273,1.3359375-0.8544922,1.6591797-1.5878906   c0.3222656-0.7333984,0.3408203-1.5488281,0.0498047-2.2954102L71.127594,78.121994l5.9751587-2.3240356   c0.6123047-0.237793,1.0947266-0.699707,1.3583984-1.300293c0.2646484-0.6010742,0.2792969-1.269043,0.0410156-1.8803711   L78.1994324,71.8370209z M72.6828308,64.432724c0.2353516-0.0913086,0.5019531,0.0268555,0.5927734,0.2602539l0.3037109,0.78125   c0.0595703,0.1533203,0.0205078,0.284668-0.0078125,0.3496094c-0.0283203,0.0644531-0.0996094,0.1821289-0.2529297,0.2416992   l-5.9755859,2.3237305l-0.6347656-1.6328125L72.6828308,64.432724z M64.4813538,66.5482635   c0.0001831,0.0005493,0.0001221,0.0010986,0.0003052,0.0016479l0.7385864,1.8984985l2.3207397,5.9678345l0.0002441,0.0013428   l0.8900757,2.2880859l0.7105103,1.8271484l-6.4023438,2.4892578l-4.9003906-12.6010742l6.4023438-2.4897461L64.4813538,66.5482635z    M34.9806824,51.323349c-5.3388691-2.1494141-9.4267597-6.2866211-11.5126972-11.6479492   c-2.1230469-5.4614258-1.8183594-11.5908203,0.8359375-16.8168945c2.6904297-5.2944336,7.3623047-9.0585947,13.1572285-10.599122   c0.0800781-0.0214844,0.1689453-0.0424805,0.2636719-0.0629883l-3.6875,10.5292978   c-0.1728516,0.4926758,0.0625,1.0356445,0.5410156,1.2460938c0.2099609,0.0922852,5.1816406,2.2680664,8.1757813,2.546875   c2.6738281,0.2485352,9.0976563,3.0751953,11.0859375,4.8774414c2.0263672,1.8364258,5.0244141,6.0605469,5.0546875,6.1030273   c0.265625,0.3735352,0.75,0.519043,1.1787109,0.3544922l2.7099609-1.0537109   c-0.3339844,1.4628906-0.8242188,2.8789063-1.4648438,4.2270508c-2.2939453,4.8125-2.6435547,10.0283203-1.0039063,14.7680664   l-2.2828979,0.8878174l-4.458313-11.4654541c-0.0957031-0.2470703-0.2861328-0.4462891-0.5292969-0.5532227   c-0.2421875-0.1069336-0.5185547-0.1132813-0.7646484-0.0166016l-8.265625,3.2148438   c-0.5146484,0.2001953-0.7695313,0.7797852-0.5693359,1.2944336l4.458313,11.4650269l-2.2835083,0.8880005   C43.6369324,56.9488373,39.7951355,53.2593842,34.9806824,51.323349z M56.1684265,57.4074554l-6.4021606,2.4897461   l-4.0961304-10.5333252l6.4023438-2.4897461L56.1684265,57.4074554z M46.7111511,67.0342865l-0.0005493,0.0003052   l-1.1342163,0.4411011l-1.2841797-3.3027344l5.2648926-2.0473633c0.0008545-0.0003662,0.0018311-0.0001221,0.0026855-0.0004883   l8.265625-3.2143555c0.0006714-0.0002441,0.0010376-0.0008545,0.001709-0.0010986l5.2658691-2.0477295l1.2841797,3.3027344   l-1.1315918,0.4400635c-0.0007324,0.0002441-0.0014648,0.0001221-0.0021973,0.0003662L46.7111511,67.0342865z    M51.8371277,84.0723724l-4.9863281-7.8095703l2.06427-0.8026733l3.2608643,8.3851318l0.0322876,0.0830688L51.8371277,84.0723724z    M70.3693542,82.498642c-0.1074219,0.2446289-0.3037109,0.4326172-0.5527344,0.5292969l-12.8037109,4.9790039   c-0.2519531,0.0966797-0.5214844,0.0898438-0.765625-0.0166016c-0.2441406-0.1074219-0.4316406-0.3041992-0.5292969-0.5527344   l-7.3495483-18.9016113l14.6680298-5.7040405l0.4802856,1.2351074l-7.3339233,2.852478   c-0.5146484,0.2001953-0.7695313,0.7797852-0.5693359,1.2944336l5.625,14.4648438   c0.0957031,0.2470703,0.2861328,0.4462891,0.5292969,0.5532227c0.1279297,0.0561523,0.2646484,0.0844727,0.4023438,0.0844727   c0.1230469,0,0.2460938-0.0224609,0.3623047-0.0678711l7.3345337-2.8522339l0.5199585,1.3370972   C70.4836121,81.9825287,70.4777527,82.2540131,70.3693542,82.498642z M76.631073,73.6920013   c-0.0283203,0.0644531-0.0996094,0.1821289-0.2529297,0.2416992l-5.9754639,2.3241577l-0.2209473-0.5681152l-0.4139404-1.0651245   l5.9755859-2.3237305c0.1533203-0.0595703,0.2841797-0.0205078,0.3496094,0.0078125   c0.0644531,0.0283203,0.1826172,0.0986328,0.2421875,0.2524414l0.3037109,0.78125   C76.6984558,73.4957123,76.6593933,73.6270599,76.631073,73.6920013z"/><path d="M62.8927917,25.3887787c1.9003906,0.9501953,5.9824219,5.0317383,6.9316406,6.9321289   c0.9931641,1.9848633,2.0224609,6.0786133,2.0332031,6.1201172c0.1113281,0.4448242,0.5107422,0.7573242,0.9697266,0.7573242   h3.8476563c0.3603516,0,0.6933594-0.1943359,0.8710938-0.5087891c1.8916016-3.3525391,2.6816406-7.1845703,2.2851563-11.0795898   c-0.8076172-8.0776367-6.9501953-14.8251963-14.9375-16.4091797c-0.359375-0.0698242-0.734375,0.0615234-0.9677734,0.347168   l-6.6308594,8.0961924c-0.3261719,0.3979492-0.296875,0.9775391,0.0664063,1.3408203   C57.4953308,21.1187592,60.6652527,24.2745209,62.8927917,25.3887787z M65.0851746,13.2886801   c6.8476563,1.6176758,12.0546875,7.5078135,12.7558594,14.5219736c0.3349609,3.2875977-0.2734375,6.5205078-1.7617188,9.3876953   h-2.4804688c-0.3603516-1.3383789-1.1611328-4.1235352-1.9853516-5.7719727   c-1.1455078-2.2915039-5.5341797-6.6801758-7.8261719-7.8266602c-1.3916016-0.6958008-3.3535156-2.4545898-4.3603516-3.4018555   L65.0851746,13.2886801z"/><path d="M75.8566589,45.1495209c-0.453125-0.0126953-1.9160156-1.0727539-3.0683594-2.2236328   c-0.2177734-0.2182617-0.5341797-0.3261719-0.8291016-0.284668c-0.3056641,0.0375977-0.5771484,0.2138672-0.7353516,0.4775391   l-3.7744141,6.2905273c-0.2578125,0.4291992-0.1582031,0.9829102,0.2324219,1.2954102l6.2910156,5.0322266   c0.1796875,0.1435547,0.4003906,0.2192383,0.625,0.2192383c0.0947266,0,0.1904297-0.0136719,0.2832031-0.0410156   c0.3134766-0.0927734,0.5625-0.3325195,0.6650391-0.6430664l1.2792969-3.8476563   c0.5107422-2.0419922,0.9501953-4.6933594,0.1425781-5.7265625C76.6925964,45.3443451,76.2970886,45.1495209,75.8566589,45.1495209   z M74.9074402,50.8658295l-0.8046875,2.4135742l-4.4882813-3.590332l2.6894531-4.4824219   c0.8613281,0.75,2.0761719,1.6625977,3.1015625,1.8896484C75.4806824,47.7711029,75.2677917,49.4102631,74.9074402,50.8658295z"/></g><text x="0" y="115" fill="#000000" font-size="5px" font-weight="bold" font-family="'Helvetica Neue', Helvetica, Arial-Unicode, Arial, Sans-serif">Created by Edwin PM</text><text x="0" y="120" fill="#000000" font-size="5px" font-weight="bold" font-family="'Helvetica Neue', Helvetica, Arial-Unicode, Arial, Sans-serif">from the Noun Project</text></svg>