<svg width="512" height="512" viewBox="0 0 512 512" style="color:#3A76F5" xmlns="http://www.w3.org/2000/svg" class="h-full w-full"><rect width="512" height="512" x="0" y="0" rx="30" fill="transparent" stroke="transparent" stroke-width="0" stroke-opacity="100%" paint-order="stroke"></rect><svg width="130px" height="130px" viewBox="0 0 16 16" fill="#3A76F5" x="191" y="191" role="img" style="display:inline-block;vertical-align:middle" xmlns="http://www.w3.org/2000/svg"><g fill="#3A76F5"><path fill="currentColor" fill-rule="evenodd" d="M2.23 4.35A6.004 6.004 0 0 0 2 6c0 1.691.7 3.22 1.826 4.31c.203.196.359.4.453.619l.762 1.769A.5.5 0 0 0 5.5 13a.5.5 0 0 0 0 1a.5.5 0 0 0 0 1l.224.447a1 1 0 0 0 .894.553h2.764a1 1 0 0 0 .894-.553L10.5 15a.5.5 0 0 0 0-1a.5.5 0 0 0 0-1a.5.5 0 0 0 .288-.091L9.878 12H5.83l-.632-1.467a2.954 2.954 0 0 0-.676-.941a4.984 4.984 0 0 1-1.455-4.405l-.837-.836zm1.588-2.653l.708.707a5 5 0 0 1 7.07 7.07l.707.707a6 6 0 0 0-8.484-8.484zm-2.172-.051a.5.5 0 0 1 .708 0l12 12a.5.5 0 0 1-.708.708l-12-12a.5.5 0 0 1 0-.708z"/></g></svg></svg>